<?xml version="1.0" encoding="UTF-8" standalone="no"?>
<!-- Created with Inkscape (http://www.inkscape.org/) -->

<svg
   version="1.1"
   id="svg1"
   width="1122.5212"
   height="1122.52"
   viewBox="0 0 1122.5212 1122.52"
   sodipodi:docname="AF_LOGO_HERDADE_SERRINHA.ai"
   xmlns:inkscape="http://www.inkscape.org/namespaces/inkscape"
   xmlns:sodipodi="http://sodipodi.sourceforge.net/DTD/sodipodi-0.dtd"
   xmlns="http://www.w3.org/2000/svg"
   xmlns:svg="http://www.w3.org/2000/svg">
  <defs
     id="defs1">
    <clipPath
       clipPathUnits="userSpaceOnUse"
       id="clipPath17">
      <path
         d="M 0,841.89 H 841.891 V 0 H 0 Z"
         transform="translate(-207.91803,-639.14552)"
         id="path17" />
    </clipPath>
  </defs>
  <sodipodi:namedview
     id="namedview1"
     pagecolor="#ffffff"
     bordercolor="#000000"
     borderopacity="0.25"
     inkscape:showpageshadow="2"
     inkscape:pageopacity="0.0"
     inkscape:pagecheckerboard="0"
     inkscape:deskcolor="#d1d1d1">
    <inkscape:page
       x="0"
       y="0"
       inkscape:label="7"
       id="page15"
       width="1122.5212"
       height="1122.52"
       margin="253.32266 277.224"
       bleed="0" />
  </sodipodi:namedview>
  <g
     id="layer-MC0"
     inkscape:groupmode="layer"
     inkscape:label="Background"
     style="display:none"
     transform="translate(-6855.1226)" />
  <g
     id="layer-MC1"
     inkscape:groupmode="layer"
     inkscape:label="Guides"
     transform="translate(-6855.1226)" />
  <g
     id="layer-MC2"
     inkscape:groupmode="layer"
     inkscape:label="Foreground"
     transform="translate(-6855.1226)">
    <path
       id="path16"
       d="M 0,0 V 6.337 H 113.646 C 75.363,-13.553 47.381,-47.895 47.744,-97.785 c 0.89,-35.042 14.27,-60.694 34.649,-80.73 v -84.609 l -19.891,-32.73 115.646,62.298 7.883,-3.191 -67.885,-36.646 c -10.815,-6.016 -19.438,-14.199 -25.869,-24.547 -6.431,-10.348 -9.726,-21.419 -9.884,-33.211 v -31.993 c -22.789,-13.146 -14.971,-87.486 5.321,-66.544 1.343,1.385 2.619,1.972 4.802,1.937 1.252,-0.068 2.598,-0.212 4.044,-0.437 6.477,-4.909 14.637,-7.618 24.479,-8.129 l 2.607,-1.161 v -5.259 H 0 v 6.336 c 12.544,0.16 22.51,3.689 29.898,10.588 7.389,6.9 11.17,16.205 11.342,27.917 V -38.507 C 41.068,-26.794 37.287,-17.488 29.898,-10.589 22.51,-3.69 12.544,-0.16 0,0 m 258.652,-190.187 49.259,26.537 c 10.815,6.016 19.437,14.198 25.868,24.547 6.432,10.348 9.725,21.418 9.883,33.211 v 32.634 c 22.789,13.148 14.971,87.487 -5.321,66.546 -1.343,-1.387 -2.619,-1.974 -4.802,-1.938 -1.252,0.068 -2.598,0.212 -4.043,0.436 -6.477,4.908 -14.639,7.619 -24.48,8.131 L 302.41,1.075 V 6.337 H 426.055 V 0 c -12.543,-0.16 -22.51,-3.69 -29.899,-10.589 -7.388,-6.899 -11.169,-16.205 -11.341,-27.918 v -359.389 c 0.172,-11.712 3.953,-21.017 11.341,-27.917 7.389,-6.899 17.356,-10.428 29.899,-10.588 v -6.336 H 306.729 c 41.611,21.761 71.736,60.185 71.584,113.705 -0.86,35.763 -13.993,63.41 -34.651,85.388 v 69.725 l 20.576,33.372 -97.873,-52.835 c -2.464,1.044 -5.04,2.109 -7.713,3.195 M 104.539,-385.155 c 18.738,-17.942 39.118,-30.999 61.141,-39.172 22.021,-8.172 40.67,-12.197 55.942,-12.074 34.12,0.615 61.108,9.172 80.962,25.67 19.854,16.499 29.996,37.25 30.426,62.252 -0.723,26.883 -10.111,48.458 -28.164,64.726 -18.054,16.266 -40.441,29.955 -67.16,41.067 -26.719,11.113 -53.439,22.378 -80.159,33.798 -26.718,11.42 -49.106,25.726 -67.16,42.916 -18.053,17.192 -27.441,39.998 -28.164,68.423 -0.119,16.515 4.541,33.178 13.982,49.989 9.44,16.811 24.381,30.95 44.824,42.413 20.441,11.462 47.104,17.429 79.988,17.9 h 3.432 c 18.84,-0.443 36.317,-3.541 52.431,-9.296 16.115,-5.755 30.587,-11.509 43.417,-17.265 12.83,-5.754 23.738,-8.853 32.723,-9.295 6.23,-0.172 11.473,1.936 15.727,6.327 4.254,4.39 -8.474,-52.412 -27.211,-34.47 -18.739,17.941 -39.119,30.999 -61.141,39.172 -21.5,7.979 -39.783,12.005 -54.852,12.076 -1.488,0.02 -3.812,-0.024 -3.812,-0.024 -34.578,-0.497 -61.881,-7.987 -80.473,-22.52 -18.593,-14.533 -27.99,-33.118 -28.191,-55.754 0.723,-23.834 10.11,-43.191 28.164,-58.072 18.055,-14.881 40.44,-27.83 67.16,-38.85 26.719,-11.019 53.44,-22.655 80.158,-34.907 26.72,-12.252 49.107,-27.666 67.16,-46.243 18.054,-18.576 27.442,-42.863 28.165,-72.859 0.05,-18.249 -5.008,-36.504 -15.178,-54.766 -10.172,-18.262 -25.766,-33.563 -46.785,-45.906 -21.018,-12.342 -47.774,-18.761 -80.265,-19.254 -18.839,0.441 -36.316,3.541 -52.432,9.295 -16.114,5.754 -30.587,11.509 -43.417,17.263 -12.83,5.756 -23.737,8.854 -32.722,9.297 -6.231,0.172 -11.473,-1.937 -15.727,-6.328 -4.254,-4.39 8.475,52.412 27.211,34.471"
       style="fill:#000000;fill-opacity:1;fill-rule:nonzero;stroke:none"
       transform="matrix(1.3333333,0,0,-1.3333333,7132.3467,270.326)"
       clip-path="url(#clipPath17)" />
  </g>
</svg>
